<svg width="131" height="132" viewBox="0 0 131 132" fill="none" xmlns="http://www.w3.org/2000/svg">
<g opacity="0.3">
<mask id="mask0_1038_171" style="mask-type:alpha" maskUnits="userSpaceOnUse" x="0" y="0" width="11" height="12">
<path d="M5.19567 11.8985C8.06517 11.8985 10.3914 9.23485 10.3914 5.9492C10.3914 2.66354 8.06517 0 5.19567 0C2.32618 0 0 2.66354 0 5.9492C0 9.23485 2.32618 11.8985 5.19567 11.8985Z" fill="url(#paint0_linear_1038_171)"/>
</mask>
<g mask="url(#mask0_1038_171)">
<path d="M5.19567 11.8985C8.06517 11.8985 10.3914 9.23485 10.3914 5.9492C10.3914 2.66354 8.06517 0 5.19567 0C2.32618 0 0 2.66354 0 5.9492C0 9.23485 2.32618 11.8985 5.19567 11.8985Z" fill="#97C3F9"/>
</g>
<mask id="mask1_1038_171" style="mask-type:alpha" maskUnits="userSpaceOnUse" x="30" y="0" width="11" height="12">
<path d="M35.2873 11.8985C38.1568 11.8985 40.483 9.23485 40.483 5.9492C40.483 2.66354 38.1568 0 35.2873 0C32.4178 0 30.0916 2.66354 30.0916 5.9492C30.0916 9.23485 32.4178 11.8985 35.2873 11.8985Z" fill="url(#paint1_linear_1038_171)"/>
</mask>
<g mask="url(#mask1_1038_171)">
<path d="M35.2873 11.8985C38.1568 11.8985 40.483 9.23485 40.483 5.9492C40.483 2.66354 38.1568 0 35.2873 0C32.4178 0 30.0916 2.66354 30.0916 5.9492C30.0916 9.23485 32.4178 11.8985 35.2873 11.8985Z" fill="#97C3F9"/>
</g>
<mask id="mask2_1038_171" style="mask-type:alpha" maskUnits="userSpaceOnUse" x="60" y="0" width="11" height="12">
<path d="M65.3792 11.8985C68.2487 11.8985 70.575 9.23485 70.575 5.9492C70.575 2.66354 68.2487 0 65.3792 0C62.5096 0 60.1833 2.66354 60.1833 5.9492C60.1833 9.23485 62.5096 11.8985 65.3792 11.8985Z" fill="url(#paint2_linear_1038_171)"/>
</mask>
<g mask="url(#mask2_1038_171)">
<path d="M65.3792 11.8985C68.2487 11.8985 70.575 9.23485 70.575 5.9492C70.575 2.66354 68.2487 0 65.3792 0C62.5096 0 60.1833 2.66354 60.1833 5.9492C60.1833 9.23485 62.5096 11.8985 65.3792 11.8985Z" fill="url(#paint3_linear_1038_171)"/>
</g>
<mask id="mask3_1038_171" style="mask-type:alpha" maskUnits="userSpaceOnUse" x="90" y="0" width="11" height="12">
<path d="M95.471 11.8985C98.3405 11.8985 100.667 9.23485 100.667 5.9492C100.667 2.66354 98.3405 0 95.471 0C92.6015 0 90.2753 2.66354 90.2753 5.9492C90.2753 9.23485 92.6015 11.8985 95.471 11.8985Z" fill="url(#paint4_linear_1038_171)"/>
</mask>
<g mask="url(#mask3_1038_171)">
<path d="M95.471 11.8985C98.3405 11.8985 100.667 9.23485 100.667 5.9492C100.667 2.66354 98.3405 0 95.471 0C92.6015 0 90.2753 2.66354 90.2753 5.9492C90.2753 9.23485 92.6015 11.8985 95.471 11.8985Z" fill="url(#paint5_linear_1038_171)"/>
</g>
<mask id="mask4_1038_171" style="mask-type:alpha" maskUnits="userSpaceOnUse" x="120" y="0" width="11" height="12">
<path d="M125.563 11.8985C128.432 11.8985 130.759 9.23485 130.759 5.9492C130.759 2.66354 128.432 0 125.563 0C122.693 0 120.367 2.66354 120.367 5.9492C120.367 9.23485 122.693 11.8985 125.563 11.8985Z" fill="url(#paint6_linear_1038_171)"/>
</mask>
<g mask="url(#mask4_1038_171)">
<path d="M125.563 11.8985C128.432 11.8985 130.759 9.23485 130.759 5.9492C130.759 2.66354 128.432 0 125.563 0C122.693 0 120.367 2.66354 120.367 5.9492C120.367 9.23485 122.693 11.8985 125.563 11.8985Z" fill="url(#paint7_linear_1038_171)"/>
</g>
<mask id="mask5_1038_171" style="mask-type:alpha" maskUnits="userSpaceOnUse" x="0" y="29" width="11" height="13">
<path d="M5.19567 41.7688C8.06517 41.7688 10.3914 39.1053 10.3914 35.8196C10.3914 32.5339 8.06517 29.8704 5.19567 29.8704C2.32618 29.8704 0 32.5339 0 35.8196C0 39.1053 2.32618 41.7688 5.19567 41.7688Z" fill="url(#paint8_linear_1038_171)"/>
</mask>
<g mask="url(#mask5_1038_171)">
<path d="M5.19567 41.7688C8.06517 41.7688 10.3914 39.1053 10.3914 35.8196C10.3914 32.5339 8.06517 29.8704 5.19567 29.8704C2.32618 29.8704 0 32.5339 0 35.8196C0 39.1053 2.32618 41.7688 5.19567 41.7688Z" fill="url(#paint9_linear_1038_171)"/>
</g>
<mask id="mask6_1038_171" style="mask-type:alpha" maskUnits="userSpaceOnUse" x="30" y="29" width="11" height="13">
<path d="M35.2873 41.7688C38.1568 41.7688 40.483 39.1053 40.483 35.8196C40.483 32.5339 38.1568 29.8704 35.2873 29.8704C32.4178 29.8704 30.0916 32.5339 30.0916 35.8196C30.0916 39.1053 32.4178 41.7688 35.2873 41.7688Z" fill="url(#paint10_linear_1038_171)"/>
</mask>
<g mask="url(#mask6_1038_171)">
<path d="M35.2873 41.7688C38.1568 41.7688 40.483 39.1053 40.483 35.8196C40.483 32.5339 38.1568 29.8704 35.2873 29.8704C32.4178 29.8704 30.0916 32.5339 30.0916 35.8196C30.0916 39.1053 32.4178 41.7688 35.2873 41.7688Z" fill="url(#paint11_linear_1038_171)"/>
</g>
<mask id="mask7_1038_171" style="mask-type:alpha" maskUnits="userSpaceOnUse" x="60" y="29" width="11" height="13">
<path d="M65.3792 41.7688C68.2487 41.7688 70.575 39.1053 70.575 35.8196C70.575 32.5339 68.2487 29.8704 65.3792 29.8704C62.5096 29.8704 60.1833 32.5339 60.1833 35.8196C60.1833 39.1053 62.5096 41.7688 65.3792 41.7688Z" fill="url(#paint12_linear_1038_171)"/>
</mask>
<g mask="url(#mask7_1038_171)">
<path d="M65.3792 41.7688C68.2487 41.7688 70.575 39.1053 70.575 35.8196C70.575 32.5339 68.2487 29.8704 65.3792 29.8704C62.5096 29.8704 60.1833 32.5339 60.1833 35.8196C60.1833 39.1053 62.5096 41.7688 65.3792 41.7688Z" fill="url(#paint13_linear_1038_171)"/>
</g>
<mask id="mask8_1038_171" style="mask-type:alpha" maskUnits="userSpaceOnUse" x="90" y="29" width="11" height="13">
<path d="M95.471 41.7688C98.3405 41.7688 100.667 39.1053 100.667 35.8196C100.667 32.5339 98.3405 29.8704 95.471 29.8704C92.6015 29.8704 90.2753 32.5339 90.2753 35.8196C90.2753 39.1053 92.6015 41.7688 95.471 41.7688Z" fill="url(#paint14_linear_1038_171)"/>
</mask>
<g mask="url(#mask8_1038_171)">
<path d="M95.471 41.7688C98.3405 41.7688 100.667 39.1053 100.667 35.8196C100.667 32.5339 98.3405 29.8704 95.471 29.8704C92.6015 29.8704 90.2753 32.5339 90.2753 35.8196C90.2753 39.1053 92.6015 41.7688 95.471 41.7688Z" fill="url(#paint15_linear_1038_171)"/>
</g>
<mask id="mask9_1038_171" style="mask-type:alpha" maskUnits="userSpaceOnUse" x="120" y="29" width="11" height="13">
<path d="M125.563 41.7688C128.432 41.7688 130.759 39.1053 130.759 35.8196C130.759 32.5339 128.432 29.8704 125.563 29.8704C122.693 29.8704 120.367 32.5339 120.367 35.8196C120.367 39.1053 122.693 41.7688 125.563 41.7688Z" fill="url(#paint16_linear_1038_171)"/>
</mask>
<g mask="url(#mask9_1038_171)">
<path d="M125.563 41.7688C128.432 41.7688 130.759 39.1053 130.759 35.8196C130.759 32.5339 128.432 29.8704 125.563 29.8704C122.693 29.8704 120.367 32.5339 120.367 35.8196C120.367 39.1053 122.693 41.7688 125.563 41.7688Z" fill="url(#paint17_linear_1038_171)"/>
</g>
<mask id="mask10_1038_171" style="mask-type:alpha" maskUnits="userSpaceOnUse" x="0" y="59" width="11" height="13">
<path d="M5.19567 71.5774C8.06517 71.5774 10.3914 68.9139 10.3914 65.6282C10.3914 62.3425 8.06517 59.679 5.19567 59.679C2.32618 59.679 0 62.3425 0 65.6282C0 68.9139 2.32618 71.5774 5.19567 71.5774Z" fill="url(#paint18_linear_1038_171)"/>
</mask>
<g mask="url(#mask10_1038_171)">
<path d="M5.19567 71.5774C8.06517 71.5774 10.3914 68.9139 10.3914 65.6282C10.3914 62.3425 8.06517 59.679 5.19567 59.679C2.32618 59.679 0 62.3425 0 65.6282C0 68.9139 2.32618 71.5774 5.19567 71.5774Z" fill="url(#paint19_linear_1038_171)"/>
</g>
<mask id="mask11_1038_171" style="mask-type:alpha" maskUnits="userSpaceOnUse" x="30" y="59" width="11" height="13">
<path d="M35.2873 71.5774C38.1568 71.5774 40.483 68.9139 40.483 65.6282C40.483 62.3425 38.1568 59.679 35.2873 59.679C32.4178 59.679 30.0916 62.3425 30.0916 65.6282C30.0916 68.9139 32.4178 71.5774 35.2873 71.5774Z" fill="url(#paint20_linear_1038_171)"/>
</mask>
<g mask="url(#mask11_1038_171)">
<path d="M35.2873 71.5774C38.1568 71.5774 40.483 68.9139 40.483 65.6282C40.483 62.3425 38.1568 59.679 35.2873 59.679C32.4178 59.679 30.0916 62.3425 30.0916 65.6282C30.0916 68.9139 32.4178 71.5774 35.2873 71.5774Z" fill="url(#paint21_linear_1038_171)"/>
</g>
<mask id="mask12_1038_171" style="mask-type:alpha" maskUnits="userSpaceOnUse" x="60" y="59" width="11" height="13">
<path d="M65.3792 71.5774C68.2487 71.5774 70.575 68.9139 70.575 65.6282C70.575 62.3425 68.2487 59.679 65.3792 59.679C62.5096 59.679 60.1833 62.3425 60.1833 65.6282C60.1833 68.9139 62.5096 71.5774 65.3792 71.5774Z" fill="url(#paint22_linear_1038_171)"/>
</mask>
<g mask="url(#mask12_1038_171)">
<path d="M65.3792 71.5774C68.2487 71.5774 70.575 68.9139 70.575 65.6282C70.575 62.3425 68.2487 59.679 65.3792 59.679C62.5096 59.679 60.1833 62.3425 60.1833 65.6282C60.1833 68.9139 62.5096 71.5774 65.3792 71.5774Z" fill="url(#paint23_linear_1038_171)"/>
</g>
<mask id="mask13_1038_171" style="mask-type:alpha" maskUnits="userSpaceOnUse" x="90" y="59" width="11" height="13">
<path d="M95.471 71.5774C98.3405 71.5774 100.667 68.9139 100.667 65.6282C100.667 62.3425 98.3405 59.679 95.471 59.679C92.6015 59.679 90.2753 62.3425 90.2753 65.6282C90.2753 68.9139 92.6015 71.5774 95.471 71.5774Z" fill="url(#paint24_linear_1038_171)"/>
</mask>
<g mask="url(#mask13_1038_171)">
<path d="M95.471 71.5774C98.3405 71.5774 100.667 68.9139 100.667 65.6282C100.667 62.3425 98.3405 59.679 95.471 59.679C92.6015 59.679 90.2753 62.3425 90.2753 65.6282C90.2753 68.9139 92.6015 71.5774 95.471 71.5774Z" fill="url(#paint25_linear_1038_171)"/>
</g>
<mask id="mask14_1038_171" style="mask-type:alpha" maskUnits="userSpaceOnUse" x="120" y="59" width="11" height="13">
<path d="M125.563 71.5774C128.432 71.5774 130.759 68.9139 130.759 65.6282C130.759 62.3425 128.432 59.679 125.563 59.679C122.693 59.679 120.367 62.3425 120.367 65.6282C120.367 68.9139 122.693 71.5774 125.563 71.5774Z" fill="url(#paint26_linear_1038_171)"/>
</mask>
<g mask="url(#mask14_1038_171)">
<path d="M125.563 71.5774C128.432 71.5774 130.759 68.9139 130.759 65.6282C130.759 62.3425 128.432 59.679 125.563 59.679C122.693 59.679 120.367 62.3425 120.367 65.6282C120.367 68.9139 122.693 71.5774 125.563 71.5774Z" fill="url(#paint27_linear_1038_171)"/>
</g>
<mask id="mask15_1038_171" style="mask-type:alpha" maskUnits="userSpaceOnUse" x="0" y="89" width="11" height="13">
<path d="M5.19567 101.448C8.06517 101.448 10.3914 98.7844 10.3914 95.4988C10.3914 92.2131 8.06517 89.5496 5.19567 89.5496C2.32618 89.5496 0 92.2131 0 95.4988C0 98.7844 2.32618 101.448 5.19567 101.448Z" fill="url(#paint28_linear_1038_171)"/>
</mask>
<g mask="url(#mask15_1038_171)">
<path d="M5.19567 101.448C8.06517 101.448 10.3914 98.7844 10.3914 95.4988C10.3914 92.2131 8.06517 89.5496 5.19567 89.5496C2.32618 89.5496 0 92.2131 0 95.4988C0 98.7844 2.32618 101.448 5.19567 101.448Z" fill="url(#paint29_linear_1038_171)"/>
</g>
<mask id="mask16_1038_171" style="mask-type:alpha" maskUnits="userSpaceOnUse" x="30" y="89" width="11" height="13">
<path d="M35.2873 101.448C38.1568 101.448 40.483 98.7844 40.483 95.4988C40.483 92.2131 38.1568 89.5496 35.2873 89.5496C32.4178 89.5496 30.0916 92.2131 30.0916 95.4988C30.0916 98.7844 32.4178 101.448 35.2873 101.448Z" fill="url(#paint30_linear_1038_171)"/>
</mask>
<g mask="url(#mask16_1038_171)">
<path d="M35.2873 101.448C38.1568 101.448 40.483 98.7844 40.483 95.4988C40.483 92.2131 38.1568 89.5496 35.2873 89.5496C32.4178 89.5496 30.0916 92.2131 30.0916 95.4988C30.0916 98.7844 32.4178 101.448 35.2873 101.448Z" fill="url(#paint31_linear_1038_171)"/>
</g>
<mask id="mask17_1038_171" style="mask-type:alpha" maskUnits="userSpaceOnUse" x="60" y="89" width="11" height="13">
<path d="M65.3792 101.448C68.2487 101.448 70.575 98.7844 70.575 95.4988C70.575 92.2131 68.2487 89.5496 65.3792 89.5496C62.5096 89.5496 60.1833 92.2131 60.1833 95.4988C60.1833 98.7844 62.5096 101.448 65.3792 101.448Z" fill="url(#paint32_linear_1038_171)"/>
</mask>
<g mask="url(#mask17_1038_171)">
<path d="M65.3792 101.448C68.2487 101.448 70.575 98.7844 70.575 95.4988C70.575 92.2131 68.2487 89.5496 65.3792 89.5496C62.5096 89.5496 60.1833 92.2131 60.1833 95.4988C60.1833 98.7844 62.5096 101.448 65.3792 101.448Z" fill="url(#paint33_linear_1038_171)"/>
</g>
<mask id="mask18_1038_171" style="mask-type:alpha" maskUnits="userSpaceOnUse" x="90" y="89" width="11" height="13">
<path d="M95.471 101.448C98.3405 101.448 100.667 98.7844 100.667 95.4988C100.667 92.2131 98.3405 89.5496 95.471 89.5496C92.6015 89.5496 90.2753 92.2131 90.2753 95.4988C90.2753 98.7844 92.6015 101.448 95.471 101.448Z" fill="url(#paint34_linear_1038_171)"/>
</mask>
<g mask="url(#mask18_1038_171)">
<path d="M95.471 101.448C98.3405 101.448 100.667 98.7844 100.667 95.4988C100.667 92.2131 98.3405 89.5496 95.471 89.5496C92.6015 89.5496 90.2753 92.2131 90.2753 95.4988C90.2753 98.7844 92.6015 101.448 95.471 101.448Z" fill="url(#paint35_linear_1038_171)"/>
</g>
<mask id="mask19_1038_171" style="mask-type:alpha" maskUnits="userSpaceOnUse" x="120" y="89" width="11" height="13">
<path d="M125.563 101.448C128.432 101.448 130.759 98.7844 130.759 95.4988C130.759 92.2131 128.432 89.5496 125.563 89.5496C122.693 89.5496 120.367 92.2131 120.367 95.4988C120.367 98.7844 122.693 101.448 125.563 101.448Z" fill="url(#paint36_linear_1038_171)"/>
</mask>
<g mask="url(#mask19_1038_171)">
<path d="M125.563 101.448C128.432 101.448 130.759 98.7844 130.759 95.4988C130.759 92.2131 128.432 89.5496 125.563 89.5496C122.693 89.5496 120.367 92.2131 120.367 95.4988C120.367 98.7844 122.693 101.448 125.563 101.448Z" fill="url(#paint37_linear_1038_171)"/>
</g>
<mask id="mask20_1038_171" style="mask-type:alpha" maskUnits="userSpaceOnUse" x="0" y="119" width="11" height="13">
<path d="M5.19567 131.256C8.06517 131.256 10.3914 128.593 10.3914 125.307C10.3914 122.022 8.06517 119.358 5.19567 119.358C2.32618 119.358 0 122.022 0 125.307C0 128.593 2.32618 131.256 5.19567 131.256Z" fill="url(#paint38_linear_1038_171)"/>
</mask>
<g mask="url(#mask20_1038_171)">
<path d="M5.19567 131.256C8.06517 131.256 10.3914 128.593 10.3914 125.307C10.3914 122.022 8.06517 119.358 5.19567 119.358C2.32618 119.358 0 122.022 0 125.307C0 128.593 2.32618 131.256 5.19567 131.256Z" fill="url(#paint39_linear_1038_171)"/>
</g>
<mask id="mask21_1038_171" style="mask-type:alpha" maskUnits="userSpaceOnUse" x="30" y="119" width="11" height="13">
<path d="M35.2873 131.257C38.1568 131.257 40.483 128.593 40.483 125.307C40.483 122.022 38.1568 119.358 35.2873 119.358C32.4178 119.358 30.0916 122.022 30.0916 125.307C30.0916 128.593 32.4178 131.257 35.2873 131.257Z" fill="url(#paint40_linear_1038_171)"/>
</mask>
<g mask="url(#mask21_1038_171)">
<path d="M35.2873 131.257C38.1568 131.257 40.483 128.593 40.483 125.307C40.483 122.022 38.1568 119.358 35.2873 119.358C32.4178 119.358 30.0916 122.022 30.0916 125.307C30.0916 128.593 32.4178 131.257 35.2873 131.257Z" fill="url(#paint41_linear_1038_171)"/>
</g>
<mask id="mask22_1038_171" style="mask-type:alpha" maskUnits="userSpaceOnUse" x="60" y="119" width="11" height="13">
<path d="M65.3792 131.257C68.2487 131.257 70.575 128.593 70.575 125.307C70.575 122.022 68.2487 119.358 65.3792 119.358C62.5096 119.358 60.1833 122.022 60.1833 125.307C60.1833 128.593 62.5096 131.257 65.3792 131.257Z" fill="url(#paint42_linear_1038_171)"/>
</mask>
<g mask="url(#mask22_1038_171)">
<path d="M65.3792 131.257C68.2487 131.257 70.575 128.593 70.575 125.307C70.575 122.022 68.2487 119.358 65.3792 119.358C62.5096 119.358 60.1833 122.022 60.1833 125.307C60.1833 128.593 62.5096 131.257 65.3792 131.257Z" fill="#FF2E00" fill-opacity="0.53"/>
</g>
<mask id="mask23_1038_171" style="mask-type:alpha" maskUnits="userSpaceOnUse" x="90" y="119" width="11" height="13">
<path d="M95.471 131.257C98.3405 131.257 100.667 128.593 100.667 125.307C100.667 122.022 98.3405 119.358 95.471 119.358C92.6015 119.358 90.2753 122.022 90.2753 125.307C90.2753 128.593 92.6015 131.257 95.471 131.257Z" fill="url(#paint43_linear_1038_171)"/>
</mask>
<g mask="url(#mask23_1038_171)">
<path d="M95.471 131.257C98.3405 131.257 100.667 128.593 100.667 125.307C100.667 122.022 98.3405 119.358 95.471 119.358C92.6015 119.358 90.2753 122.022 90.2753 125.307C90.2753 128.593 92.6015 131.257 95.471 131.257Z" fill="url(#paint44_linear_1038_171)"/>
</g>
<mask id="mask24_1038_171" style="mask-type:alpha" maskUnits="userSpaceOnUse" x="120" y="119" width="11" height="13">
<path d="M125.563 131.257C128.432 131.257 130.759 128.593 130.759 125.307C130.759 122.022 128.432 119.358 125.563 119.358C122.693 119.358 120.367 122.022 120.367 125.307C120.367 128.593 122.693 131.257 125.563 131.257Z" fill="url(#paint45_linear_1038_171)"/>
</mask>
<g mask="url(#mask24_1038_171)">
<path d="M125.563 131.257C128.432 131.257 130.759 128.593 130.759 125.307C130.759 122.022 128.432 119.358 125.563 119.358C122.693 119.358 120.367 122.022 120.367 125.307C120.367 128.593 122.693 131.257 125.563 131.257Z" fill="url(#paint46_linear_1038_171)"/>
</g>
</g>
<defs>
<linearGradient id="paint0_linear_1038_171" x1="54.652" y1="149.669" x2="-35.1179" y2="-49.345" gradientUnits="userSpaceOnUse">
<stop/>
<stop offset="1" stop-color="white"/>
</linearGradient>
<linearGradient id="paint1_linear_1038_171" x1="80.693" y1="137.923" x2="-9.07617" y2="-61.0917" gradientUnits="userSpaceOnUse">
<stop/>
<stop offset="1" stop-color="white"/>
</linearGradient>
<linearGradient id="paint2_linear_1038_171" x1="106.734" y1="126.177" x2="16.9657" y2="-72.8384" gradientUnits="userSpaceOnUse">
<stop/>
<stop offset="1" stop-color="white"/>
</linearGradient>
<linearGradient id="paint3_linear_1038_171" x1="106.734" y1="126.177" x2="16.9657" y2="-72.8384" gradientUnits="userSpaceOnUse">
<stop stop-color="#97C3F9"/>
<stop offset="1" stop-color="#93C1F9"/>
</linearGradient>
<linearGradient id="paint4_linear_1038_171" x1="132.774" y1="114.431" x2="43.005" y2="-84.5841" gradientUnits="userSpaceOnUse">
<stop/>
<stop offset="1" stop-color="white"/>
</linearGradient>
<linearGradient id="paint5_linear_1038_171" x1="132.774" y1="114.431" x2="43.005" y2="-84.5841" gradientUnits="userSpaceOnUse">
<stop stop-color="#97C3F9"/>
<stop offset="1" stop-color="#93C1F9"/>
</linearGradient>
<linearGradient id="paint6_linear_1038_171" x1="158.815" y1="102.684" x2="69.0455" y2="-96.3303" gradientUnits="userSpaceOnUse">
<stop/>
<stop offset="1" stop-color="white"/>
</linearGradient>
<linearGradient id="paint7_linear_1038_171" x1="158.815" y1="102.684" x2="69.0455" y2="-96.3303" gradientUnits="userSpaceOnUse">
<stop stop-color="#97C3F9"/>
<stop offset="1" stop-color="#93C1F9"/>
</linearGradient>
<linearGradient id="paint8_linear_1038_171" x1="45.7658" y1="153.678" x2="-44.0041" y2="-45.3356" gradientUnits="userSpaceOnUse">
<stop/>
<stop offset="1" stop-color="white"/>
</linearGradient>
<linearGradient id="paint9_linear_1038_171" x1="45.7658" y1="153.678" x2="-44.0041" y2="-45.3356" gradientUnits="userSpaceOnUse">
<stop stop-color="#97C3F9"/>
<stop offset="1" stop-color="#93C1F9"/>
</linearGradient>
<linearGradient id="paint10_linear_1038_171" x1="71.8065" y1="141.932" x2="-17.9627" y2="-57.0831" gradientUnits="userSpaceOnUse">
<stop/>
<stop offset="1" stop-color="white"/>
</linearGradient>
<linearGradient id="paint11_linear_1038_171" x1="71.8065" y1="141.932" x2="-17.9627" y2="-57.0831" gradientUnits="userSpaceOnUse">
<stop stop-color="#97C3F9"/>
<stop offset="1" stop-color="#93C1F9"/>
</linearGradient>
<linearGradient id="paint12_linear_1038_171" x1="97.8474" y1="130.185" x2="8.07896" y2="-68.8299" gradientUnits="userSpaceOnUse">
<stop/>
<stop offset="1" stop-color="white"/>
</linearGradient>
<linearGradient id="paint13_linear_1038_171" x1="97.8474" y1="130.185" x2="8.07896" y2="-68.8299" gradientUnits="userSpaceOnUse">
<stop stop-color="#97C3F9"/>
<stop offset="1" stop-color="#93C1F9"/>
</linearGradient>
<linearGradient id="paint14_linear_1038_171" x1="123.888" y1="118.439" x2="34.1184" y2="-80.5753" gradientUnits="userSpaceOnUse">
<stop/>
<stop offset="1" stop-color="white"/>
</linearGradient>
<linearGradient id="paint15_linear_1038_171" x1="123.888" y1="118.439" x2="34.1184" y2="-80.5753" gradientUnits="userSpaceOnUse">
<stop stop-color="#97C3F9"/>
<stop offset="1" stop-color="#93C1F9"/>
</linearGradient>
<linearGradient id="paint16_linear_1038_171" x1="149.928" y1="106.693" x2="60.159" y2="-92.3214" gradientUnits="userSpaceOnUse">
<stop/>
<stop offset="1" stop-color="white"/>
</linearGradient>
<linearGradient id="paint17_linear_1038_171" x1="149.928" y1="106.693" x2="60.159" y2="-92.3214" gradientUnits="userSpaceOnUse">
<stop stop-color="#97C3F9"/>
<stop offset="1" stop-color="#93C1F9"/>
</linearGradient>
<linearGradient id="paint18_linear_1038_171" x1="36.8792" y1="157.687" x2="-52.8907" y2="-41.3271" gradientUnits="userSpaceOnUse">
<stop/>
<stop offset="1" stop-color="white"/>
</linearGradient>
<linearGradient id="paint19_linear_1038_171" x1="36.8792" y1="157.687" x2="-52.8907" y2="-41.3271" gradientUnits="userSpaceOnUse">
<stop stop-color="#97C3F9"/>
<stop offset="1" stop-color="#93C1F9"/>
</linearGradient>
<linearGradient id="paint20_linear_1038_171" x1="62.9199" y1="145.941" x2="-26.8493" y2="-53.0741" gradientUnits="userSpaceOnUse">
<stop/>
<stop offset="1" stop-color="white"/>
</linearGradient>
<linearGradient id="paint21_linear_1038_171" x1="62.9199" y1="145.941" x2="-26.8493" y2="-53.0741" gradientUnits="userSpaceOnUse">
<stop stop-color="#97C3F9"/>
<stop offset="1" stop-color="#93C1F9"/>
</linearGradient>
<linearGradient id="paint22_linear_1038_171" x1="88.9608" y1="134.194" x2="-0.807648" y2="-64.8209" gradientUnits="userSpaceOnUse">
<stop/>
<stop offset="1" stop-color="white"/>
</linearGradient>
<linearGradient id="paint23_linear_1038_171" x1="88.9608" y1="134.194" x2="-0.807648" y2="-64.8209" gradientUnits="userSpaceOnUse">
<stop stop-color="#97C3F9"/>
<stop offset="1" stop-color="#93C1F9"/>
</linearGradient>
<linearGradient id="paint24_linear_1038_171" x1="115.001" y1="122.448" x2="25.2318" y2="-76.5665" gradientUnits="userSpaceOnUse">
<stop/>
<stop offset="1" stop-color="white"/>
</linearGradient>
<linearGradient id="paint25_linear_1038_171" x1="115.001" y1="122.448" x2="25.2318" y2="-76.5665" gradientUnits="userSpaceOnUse">
<stop stop-color="#97C3F9"/>
<stop offset="1" stop-color="#93C1F9"/>
</linearGradient>
<linearGradient id="paint26_linear_1038_171" x1="141.042" y1="110.702" x2="51.2724" y2="-88.3126" gradientUnits="userSpaceOnUse">
<stop/>
<stop offset="1" stop-color="white"/>
</linearGradient>
<linearGradient id="paint27_linear_1038_171" x1="141.042" y1="110.702" x2="51.2724" y2="-88.3126" gradientUnits="userSpaceOnUse">
<stop stop-color="#97C3F9"/>
<stop offset="1" stop-color="#93C1F9"/>
</linearGradient>
<linearGradient id="paint28_linear_1038_171" x1="27.9927" y1="161.696" x2="-61.7771" y2="-37.3182" gradientUnits="userSpaceOnUse">
<stop/>
<stop offset="1" stop-color="white"/>
</linearGradient>
<linearGradient id="paint29_linear_1038_171" x1="27.9927" y1="161.696" x2="-61.7771" y2="-37.3182" gradientUnits="userSpaceOnUse">
<stop stop-color="#97C3F9"/>
<stop offset="1" stop-color="#93C1F9"/>
</linearGradient>
<linearGradient id="paint30_linear_1038_171" x1="54.0334" y1="149.95" x2="-35.7358" y2="-49.0651" gradientUnits="userSpaceOnUse">
<stop/>
<stop offset="1" stop-color="white"/>
</linearGradient>
<linearGradient id="paint31_linear_1038_171" x1="54.0334" y1="149.95" x2="-35.7358" y2="-49.0651" gradientUnits="userSpaceOnUse">
<stop stop-color="#97C3F9"/>
<stop offset="1" stop-color="#93C1F9"/>
</linearGradient>
<linearGradient id="paint32_linear_1038_171" x1="80.0741" y1="138.203" x2="-9.6943" y2="-60.8119" gradientUnits="userSpaceOnUse">
<stop/>
<stop offset="1" stop-color="white"/>
</linearGradient>
<linearGradient id="paint33_linear_1038_171" x1="80.0741" y1="138.203" x2="-9.6943" y2="-60.8119" gradientUnits="userSpaceOnUse">
<stop stop-color="#97C3F9"/>
<stop offset="1" stop-color="#93C1F9"/>
</linearGradient>
<linearGradient id="paint34_linear_1038_171" x1="106.115" y1="126.457" x2="16.3453" y2="-72.5574" gradientUnits="userSpaceOnUse">
<stop/>
<stop offset="1" stop-color="white"/>
</linearGradient>
<linearGradient id="paint35_linear_1038_171" x1="106.115" y1="126.457" x2="16.3453" y2="-72.5574" gradientUnits="userSpaceOnUse">
<stop stop-color="#97C3F9"/>
<stop offset="1" stop-color="#93C1F9"/>
</linearGradient>
<linearGradient id="paint36_linear_1038_171" x1="132.155" y1="114.711" x2="42.3859" y2="-84.3036" gradientUnits="userSpaceOnUse">
<stop/>
<stop offset="1" stop-color="white"/>
</linearGradient>
<linearGradient id="paint37_linear_1038_171" x1="132.155" y1="114.711" x2="42.3859" y2="-84.3036" gradientUnits="userSpaceOnUse">
<stop stop-color="#97C3F9"/>
<stop offset="1" stop-color="#93C1F9"/>
</linearGradient>
<linearGradient id="paint38_linear_1038_171" x1="19.1063" y1="165.704" x2="-70.6635" y2="-33.3095" gradientUnits="userSpaceOnUse">
<stop/>
<stop offset="1" stop-color="white"/>
</linearGradient>
<linearGradient id="paint39_linear_1038_171" x1="19.1063" y1="165.704" x2="-70.6635" y2="-33.3095" gradientUnits="userSpaceOnUse">
<stop stop-color="#97C3F9"/>
<stop offset="1" stop-color="#93C1F9"/>
</linearGradient>
<linearGradient id="paint40_linear_1038_171" x1="45.1469" y1="153.958" x2="-44.6223" y2="-45.0561" gradientUnits="userSpaceOnUse">
<stop/>
<stop offset="1" stop-color="white"/>
</linearGradient>
<linearGradient id="paint41_linear_1038_171" x1="45.1469" y1="153.958" x2="-44.6223" y2="-45.0561" gradientUnits="userSpaceOnUse">
<stop stop-color="#97C3F9"/>
<stop offset="1" stop-color="#93C1F9"/>
</linearGradient>
<linearGradient id="paint42_linear_1038_171" x1="71.1875" y1="142.212" x2="-18.5809" y2="-56.8029" gradientUnits="userSpaceOnUse">
<stop/>
<stop offset="1" stop-color="white"/>
</linearGradient>
<linearGradient id="paint43_linear_1038_171" x1="97.228" y1="130.466" x2="7.45884" y2="-68.5484" gradientUnits="userSpaceOnUse">
<stop/>
<stop offset="1" stop-color="white"/>
</linearGradient>
<linearGradient id="paint44_linear_1038_171" x1="97.228" y1="130.466" x2="7.45884" y2="-68.5484" gradientUnits="userSpaceOnUse">
<stop stop-color="#97C3F9"/>
<stop offset="1" stop-color="#93C1F9"/>
</linearGradient>
<linearGradient id="paint45_linear_1038_171" x1="123.269" y1="118.72" x2="33.4994" y2="-80.2946" gradientUnits="userSpaceOnUse">
<stop/>
<stop offset="1" stop-color="white"/>
</linearGradient>
<linearGradient id="paint46_linear_1038_171" x1="123.269" y1="118.72" x2="33.4994" y2="-80.2946" gradientUnits="userSpaceOnUse">
<stop stop-color="#97C3F9"/>
<stop offset="1" stop-color="#93C1F9"/>
</linearGradient>
</defs>
</svg>
