<svg width="32" height="31" viewBox="0 0 32 31" fill="none" xmlns="http://www.w3.org/2000/svg">
<path d="M31.1143 15.0762C31.1143 6.74984 24.3645 0 16.0381 0C7.71176 0 0.961914 6.74984 0.961914 15.0762C0.961914 23.4026 7.71176 30.1524 16.0381 30.1524C24.3645 30.1524 31.1143 23.4026 31.1143 15.0762Z" fill="white"/>
<path d="M17.1016 23.4517V15.3515H19.8674L20.2821 12.1946H17.1016V10.1791C17.1016 9.26518 17.3598 8.64231 18.693 8.64231H20.3934V5.81965C19.5704 5.73405 18.7432 5.69259 17.9156 5.69545C15.4639 5.69545 13.7855 7.16653 13.7855 9.86829V12.1946H11.0127V15.3515H13.7855V23.4517H17.1016Z" fill="#FF2E00"/>
</svg>
