<svg width="32" height="31" viewBox="0 0 32 31" fill="none" xmlns="http://www.w3.org/2000/svg">
<path d="M20.4945 8.02246H11.5072C10.0719 8.02246 8.90564 9.18876 8.90564 10.624V19.6099C8.90564 21.0452 10.0719 22.2131 11.5072 22.2131H20.4945C21.9282 22.2131 23.0961 21.0452 23.0961 19.6099V10.624C23.0961 9.1887 21.9282 8.02246 20.4945 8.02246ZM16 19.7887C13.4247 19.7887 11.3284 17.6923 11.3284 15.117C11.3284 12.5417 13.4248 10.4454 16 10.4454C18.577 10.4454 20.6716 12.5417 20.6716 15.117C20.6716 17.6923 18.5753 19.7887 16 19.7887ZM20.8226 11.4113C20.2124 11.4113 19.717 10.9162 19.717 10.306C19.717 9.69719 20.2124 9.20039 20.8226 9.20039C21.4311 9.20039 21.9282 9.69719 21.9282 10.306C21.9282 10.9162 21.4311 11.4113 20.8226 11.4113Z" fill="white"/>
<path d="M16.0001 12.4204C14.5139 12.4204 13.3033 13.6293 13.3033 15.1171C13.3033 16.6048 14.5139 17.8154 16.0001 17.8154C17.4878 17.8154 18.6984 16.6048 18.6984 15.1171C18.6984 13.6309 17.4878 12.4204 16.0001 12.4204Z" fill="white"/>
<path d="M16 0C7.67374 0 0.923828 6.74992 0.923828 15.0762C0.923828 23.4025 7.67374 30.1524 16 30.1524C24.3263 30.1524 31.0762 23.4025 31.0762 15.0762C31.0762 6.74998 24.3263 0 16 0ZM25.0694 19.6101C25.0694 22.1345 23.0174 24.1866 20.4945 24.1866H11.5072C8.98441 24.1866 6.93073 22.1346 6.93073 19.6101V10.6242C6.93073 8.10159 8.98441 6.04791 11.5072 6.04791H20.4945C23.0174 6.04791 25.0694 8.10159 25.0694 10.6242V19.6101Z" fill="white"/>
</svg>
