<svg width="534" height="297" viewBox="0 0 534 297" fill="none" xmlns="http://www.w3.org/2000/svg">
<g clip-path="url(#clip0_1100_75)">
<path d="M7.95442 404.224C4.82506 244.092 132.112 112.418 292.258 110.122L332.254 109.549C492.4 107.253 624.761 235.205 627.891 395.337V395.337L7.95442 404.224V404.224Z" fill="#EDF6E8"/>
<path d="M382.477 265.761C361.016 275.003 345.904 273.242 333.736 264.136C321.583 255.042 287.957 189.389 287.957 189.389C287.957 189.389 265.364 137.633 265.187 123.246C265.138 119.935 266.225 116.543 267.931 113.296C273.594 102.471 286.077 93.1905 286.077 93.1905C286.077 93.1905 310.498 83.5209 323.255 103.633C336.028 123.745 381.435 212.438 381.435 212.438C381.435 212.438 385.393 220.187 388.415 229.861C392.574 243.28 394.947 260.396 382.477 265.761Z" fill="#EE9087"/>
<path d="M382.477 265.76C361.016 275.003 345.904 273.242 333.736 264.136C321.583 255.042 287.957 189.388 287.957 189.388C287.957 189.388 265.364 137.633 265.187 123.246C265.138 119.935 266.226 116.543 267.931 113.296C271.224 111.567 273.514 110.623 273.514 110.623C301.318 129.929 328.535 152.132 329.619 188.432C330.486 217.495 356.809 234.614 388.415 229.861C392.574 243.28 394.947 260.396 382.477 265.76Z" fill="#D36265"/>
<path d="M247.749 104.352C261.355 97.3384 275.835 92.7089 290.364 87.4187C291.777 86.9042 291.239 85.0646 289.675 85.4098C274.443 88.7716 259.99 95.8776 246.875 103.119C245.967 103.621 246.817 104.832 247.749 104.352Z" fill="white"/>
<path d="M302.86 85.4662C304.759 85.7297 306.542 86.2109 308.3 86.8871C309.703 87.4268 310.971 88.3859 312.546 88.4116C313.302 88.4239 313.571 87.7327 313.306 87.2311C312.585 85.865 310.479 85.2994 308.93 84.8189C307.058 84.238 305.056 84.0094 303.076 83.8994C302.041 83.842 301.824 85.3224 302.86 85.4662Z" fill="white"/>
<path d="M326.035 95.5788C336.245 103.888 338.728 116.752 348.413 125.311C349.634 126.39 351.857 124.919 350.84 123.65C343.081 113.962 338.492 101.735 327.245 94.5066C326.376 93.9481 325.197 94.897 326.035 95.5788Z" fill="white"/>
<path d="M300.699 213.86C300.699 213.86 308.649 186.517 312.244 169.962C313.09 166.029 313.713 162.705 313.907 160.502C314.948 148.988 289.156 110.111 289.156 110.111L286.078 93.1954C286.078 93.1954 276.308 98.7539 263.58 104.484C253.407 109.058 241.355 113.742 230.882 115.766C221.341 117.627 203.237 116.181 185.095 113.795C169.512 111.762 153.898 109.04 143.63 107.133C135.57 105.636 127.654 109.987 125.796 116.869C124.445 121.871 123.266 128.059 122.294 134.788C121.349 141.366 120.579 148.444 120.06 155.453C118.646 174.248 118.883 192.446 121.334 198.401C126.848 211.754 148.888 241.121 148.888 241.121L132.41 294.455L328.429 291.644C322.871 276.667 307.264 234.355 300.699 213.86Z" fill="#EE9087"/>
<g opacity="0.4">
<g opacity="0.4">
<path opacity="0.4" d="M130.406 262.389C125.126 275.571 121.794 289.553 119.517 303.336C119.239 305.02 122.231 305.72 122.551 304.006C125.144 290.091 128.955 276.602 132.957 262.952C133.376 261.525 130.949 261.032 130.406 262.389Z" fill="#DE9234"/>
</g>
</g>
<path d="M228.746 260.12C273.838 249.921 300.699 213.86 300.699 213.86C300.699 213.86 308.649 186.517 312.244 169.962C300.616 185.989 277.254 215.85 262.503 218.56C242.242 222.287 188.84 219.564 174.737 201.025C161.026 182.988 132.015 155.833 122.295 134.788C118.786 158.998 117.964 190.219 121.334 198.401C126.848 211.754 148.888 241.121 148.888 241.121L132.41 294.455L195.004 293.557C198.277 277.559 209.105 264.561 228.746 260.12Z" fill="#F08175"/>
<path d="M148.888 241.121C148.888 241.121 126.848 211.754 121.334 198.401C118.883 192.446 118.646 174.248 120.06 155.453C128.911 146.272 136.346 144.15 136.346 144.15L173.731 168.92C176.319 185.76 184.786 225.433 148.888 241.121Z" fill="#D36265"/>
<path d="M139.726 200.846L160.113 230.666" stroke="#182D3C" stroke-width="2.64134" stroke-miterlimit="10" stroke-linecap="round" stroke-linejoin="round"/>
<path d="M164.633 254.157L151.429 293.001" stroke="white" stroke-width="2.64134" stroke-miterlimit="10" stroke-linecap="round" stroke-linejoin="round"/>
<path d="M157.26 242.236C157.26 242.236 185.373 255.636 194.618 262.163" stroke="#182D3C" stroke-width="2.64134" stroke-miterlimit="10" stroke-linecap="round" stroke-linejoin="round"/>
<path d="M162.429 237.903C162.429 237.903 182.84 241.698 189.432 243.82" stroke="#182D3C" stroke-width="2.64134" stroke-miterlimit="10" stroke-linecap="round" stroke-linejoin="round"/>
<path d="M276.22 164.282C273.938 182.145 267.541 198.205 265.283 203.477C264.77 204.653 264.479 205.29 264.479 205.29L238.775 174.04L185.095 113.795C203.237 116.181 221.341 117.627 230.882 115.766C238.292 114.34 246.482 111.569 254.261 108.454C257.066 107.327 259.821 106.157 262.444 105.001C262.828 104.819 263.212 104.652 263.579 104.485C264.286 106.426 265.055 108.667 265.889 111.107C271.095 126.506 278.006 150.328 276.22 164.282Z" fill="#F19B51"/>
<path d="M276.22 164.282C273.937 182.145 267.541 198.205 265.283 203.477L261.123 200.081C265.934 161.969 256.547 118.277 254.261 108.454C257.066 107.327 259.821 106.157 262.443 105.001C263.095 106.059 264.347 108.191 265.889 111.107C271.095 126.506 278.006 150.328 276.22 164.282Z" fill="#F1903D"/>
<path d="M231.306 123.734C231.306 123.734 252.542 161.542 260.259 189.791" stroke="white" stroke-width="2.64134" stroke-miterlimit="10" stroke-linecap="round" stroke-linejoin="round"/>
<path d="M169.982 112.229C169.982 112.229 174.449 151.318 177.166 167.837L216.92 169.934L215.397 189.345C215.397 189.345 242.23 195.842 264.785 208.291C264.785 208.291 284.163 187.044 293.913 179.048L282.209 167.656L295.965 160.286C295.965 160.286 281.082 127.672 265.964 113.931L263.166 115.513C263.166 115.513 272.548 166.998 263.821 200.831C263.821 200.831 213.67 137.988 186.996 123.717L169.982 112.229Z" fill="#8D2429"/>
<path d="M166.597 109.653C166.597 109.653 176.547 143.929 179.236 162.634L216.983 164.906L213.617 182.401C213.617 182.401 242.25 194.219 264.785 208.292C264.785 208.292 284.198 184.203 292.214 172.529L282.901 162.044L296.045 153.883C296.045 153.883 281.216 116.963 266.12 101.417L256.622 105.76C256.622 105.76 272.617 161.513 263.833 199.843C263.833 199.843 213.785 128.728 187.134 112.597L166.597 109.653Z" fill="white"/>
<path d="M242.631 117.028C240.678 121.236 231.588 119.448 231.588 119.448C216.003 120.585 208.332 118.424 208.332 118.424L202.697 76.4636L205.452 77.0317L234.886 83.2722L241.135 115.741L242.631 117.028Z" fill="#F5C3C0"/>
<path d="M241.135 115.741C210.6 114.182 206.101 86.6525 205.451 77.0317L234.886 83.2722L241.135 115.741Z" fill="#CF8E87"/>
<path d="M185.949 36.6488C185.949 36.6488 161.96 47.4396 161.374 68.9513C160.788 90.4631 147.209 148.377 70.6027 149.846C28.2703 150.621 11.6946 136.822 5.57189 123.274C-0.244539 110.582 3.12497 98.1288 3.12497 98.1288C28.3324 116.659 61.4224 105.68 76.6711 66.2753C91.9194 26.9088 119.167 5.36999 149.246 10.7633C167.266 13.9912 176.89 22.6861 181.653 29.0881C184.904 33.3827 185.949 36.6488 185.949 36.6488Z" fill="#5B1C10"/>
<path d="M185.949 36.6487C185.949 36.6487 161.96 47.4395 161.374 68.9512C160.788 90.463 147.209 148.377 70.6027 149.846C28.2703 150.621 11.6946 136.822 5.57193 123.274C50.2867 163.694 115.118 130.132 117.151 94.2502C119.298 56.4695 124.105 33.9884 149.104 25.7657C162.557 21.3528 173.965 24.8691 181.653 29.088C184.904 33.3826 185.949 36.6487 185.949 36.6487Z" fill="#5B1C10"/>
<path d="M271.956 77.2552C268.72 100.823 248.174 103.379 248.174 103.379C248.174 103.379 234.509 106.741 216.493 95.4709C208.024 86.3257 189.48 29.4314 214.724 23.2271C217.176 22.6291 219.49 22.1851 221.667 21.8948C270.64 9.87732 275.193 53.6878 271.956 77.2552Z" fill="#F5C3C0"/>
<path d="M241.196 83.5204C241.278 83.5389 241.365 83.5508 241.455 83.5537C241.691 83.5636 247.247 83.7368 249.325 79.8327C249.546 79.4148 249.433 78.9218 249.04 78.6087C245.603 75.8658 243.363 69.2957 243.34 69.2292C243.15 68.6587 242.454 68.3355 241.797 68.4994C241.136 68.6634 240.754 69.2541 240.945 69.8207C241.037 70.0955 243.127 76.2148 246.644 79.5595C245.005 81.511 241.601 81.4234 241.564 81.4215C240.879 81.3992 240.299 81.8561 240.27 82.4432C240.245 82.9536 240.64 83.3957 241.196 83.5204Z" fill="#5B1C10"/>
<path d="M240.104 95.8048C249.199 96.7804 251.41 91.7066 251.41 91.7066C251.41 91.7066 252.403 90.9104 252.182 90.3532L233.794 88.8048C233.645 89.5649 233.695 89.9299 233.83 90.6354C234.36 93.3936 238.617 95.4709 240.104 95.8048Z" fill="#5B1C10"/>
<path d="M235.383 58.4771C235.383 58.4771 235.905 56.9564 234.662 56.1547C233.42 55.353 233.281 57.4087 233.281 57.4087C233.281 57.4087 223.328 55.7543 222.197 64.3188C222.197 64.3188 225.652 56.823 235.383 58.4771Z" fill="#5B1C10"/>
<path d="M247.076 59.4307C247.076 59.4307 247.298 55.119 248.508 54.2822C249.719 53.4453 249.938 55.4959 249.938 55.4959C249.938 55.4959 259.821 53.5571 261.286 62.0844C261.286 62.0844 256.737 57.4987 247.076 59.4307Z" fill="#5B1C10"/>
<path d="M232.999 71.7225C235.128 71.681 236.806 69.8066 236.745 67.5357C236.685 65.2649 234.91 63.4575 232.781 63.499C230.652 63.5404 228.975 65.4149 229.035 67.6857C229.096 69.9566 230.87 71.7639 232.999 71.7225Z" fill="#5B1C10"/>
<path d="M234.029 70.7974C234.738 70.9566 235.464 70.5931 235.65 69.9856C235.836 69.378 235.412 68.7564 234.702 68.5971C233.993 68.4379 233.267 68.8014 233.081 69.4089C232.895 70.0165 233.32 70.6381 234.029 70.7974Z" fill="white"/>
<path d="M253.272 70.671C255.402 70.6295 257.079 68.7551 257.019 66.4842C256.958 64.2133 255.183 62.406 253.054 62.4475C250.925 62.4889 249.248 64.3634 249.308 66.6342C249.369 68.9051 251.143 70.7124 253.272 70.671Z" fill="#5B1C10"/>
<path d="M254.074 69.6055C254.783 69.7647 255.509 69.4012 255.695 68.7937C255.881 68.1861 255.456 67.5645 254.747 67.4053C254.038 67.246 253.312 67.6095 253.126 68.2171C252.94 68.8246 253.365 69.4462 254.074 69.6055Z" fill="white"/>
<path d="M238.671 103.515C232.344 104.058 217.948 97.0272 216.493 95.4709C189.41 79.4 185.325 27.7781 210.57 21.5738C208.394 21.8641 213.022 20.9758 210.57 21.5738C204.961 61.1451 218.941 88.5629 238.671 103.515Z" fill="#EFA097"/>
<path d="M192.814 27.2668C192.814 27.2668 185.3 23.8637 178.141 28.7013C170.982 33.5388 174.658 50.8316 188.676 46.8415C202.694 42.8513 199.197 29.4827 192.814 27.2668Z" fill="#ED7A92"/>
<path d="M285.353 54.6186C275.054 67.4343 248.942 66.9238 239.276 50.7845C229.655 34.6457 217.922 38.9967 217.922 38.9967C219.027 44.7447 218.837 49.1239 217.936 52.4498C215.235 62.0787 206.534 62.852 206.534 62.852L206.452 69.4421L198.2 70.5683C198.2 70.5683 179.41 49.189 187.501 32.0106C187.594 31.8177 187.687 31.5859 187.78 31.393C196.597 14.105 218.496 18.4539 218.496 18.4539C218.496 18.4539 236.493 5.47611 258.546 11.9977C288.04 20.7198 278.299 54.0499 278.299 54.0499L285.353 54.6186Z" fill="#5B1C10"/>
<path d="M217.936 52.4495C215.235 62.0784 206.534 62.8517 206.534 62.8517L206.452 69.4418L198.2 70.568C198.2 70.568 179.41 49.1887 187.501 32.0103C193.229 44.5467 208.142 50.0725 217.936 52.4495Z" fill="#5B1C10"/>
<path d="M204.75 71.5455L206.914 79.0867C206.914 79.0867 204.093 88.0751 189.786 83.7269C174.287 79.0161 170.126 56.3248 188.497 58.4549C196.511 59.3842 202.819 64.8189 204.75 71.5455Z" fill="#F5C3C0"/>
<path d="M244.943 118.514C244.943 118.514 239.914 122.032 235.037 124.221L228.189 120.573L227.573 126.002C219.233 126.125 206.7 121.486 206.7 121.486L207.167 113.395L240.113 110.929L244.943 118.514Z" fill="#473C6B"/>
<path d="M263.337 210.721L251.587 248.734L258.659 290.992" stroke="white" stroke-width="2.64134" stroke-miterlimit="10" stroke-linecap="round" stroke-linejoin="round"/>
<path d="M273.653 250.594C273.687 247.862 271.129 245.624 267.939 245.595C264.75 245.566 262.136 247.757 262.102 250.488C262.068 253.22 264.626 255.459 267.816 255.488C271.005 255.517 273.619 253.326 273.653 250.594Z" fill="white"/>
<path d="M280.298 276.978C280.332 274.246 277.774 272.008 274.584 271.978C271.395 271.949 268.781 274.14 268.747 276.872C268.713 279.604 271.271 281.842 274.461 281.872C277.65 281.901 280.264 279.71 280.298 276.978Z" fill="white"/>
<g opacity="0.4">
<g opacity="0.4">
<path opacity="0.4" d="M27.4081 184.656C26.9854 205.274 28.6032 226.091 33.1227 246.384C34.9301 254.5 38.2422 262.033 44.3089 268.535C48.889 273.443 55.9701 279.535 63.5175 280.632C64.4909 280.773 65.3231 279.772 64.5062 279.119C57.7276 273.704 50.1501 270.577 44.7431 263.727C39.1131 256.594 37.0855 248.321 35.5874 239.955C32.3135 221.672 30.5918 203.094 29.5151 184.626C29.4475 183.465 27.4319 183.493 27.4081 184.656Z" fill="#DE9234"/>
</g>
</g>
<g opacity="0.4">
<g opacity="0.4">
<path opacity="0.4" d="M74.3084 280.816C79.099 281.305 85.7722 282.345 90.2447 280.462C91.0564 280.12 90.7749 279.035 89.9687 278.862C87.6303 278.361 85.1244 278.809 82.7299 278.864C80.0167 278.927 77.3127 278.839 74.6083 278.645C73.177 278.542 72.8663 280.669 74.3084 280.816Z" fill="#DE9234"/>
</g>
</g>
<g opacity="0.4">
<g opacity="0.4">
<path opacity="0.4" d="M101.681 277.919C110.096 273.886 116.719 267.662 122.246 260.973C128.572 253.318 135.006 244.2 137.886 235.124C138.3 233.82 136.157 233.13 135.368 234.257C129.996 241.923 126.243 250.296 120.468 257.817C114.878 265.097 108.233 271.048 100.404 276.549C99.4683 277.207 100.7 278.389 101.681 277.919Z" fill="#DE9234"/>
</g>
</g>
<path d="M270.143 266.79L215.586 273.567L208.34 267.085L191.144 269.103L190.473 234.774C190.473 234.774 194.357 234.128 199.959 233.201C213.45 230.992 236.967 227.227 240.415 227.28C243.068 227.319 251.63 239.007 258.882 249.673C264.977 258.597 270.143 266.79 270.143 266.79Z" fill="#F5C3C0"/>
<path d="M270.143 266.79L215.586 273.567L208.34 267.085L191.144 269.103L190.473 234.774C190.473 234.774 194.357 234.128 199.959 233.201C202.363 240.419 202.603 254.215 208.932 259.015C216.417 264.71 256.895 262.269 258.882 249.673C264.977 258.597 270.143 266.79 270.143 266.79Z" fill="#EFA097"/>
<path d="M221.414 245.884L232.572 266.225" stroke="white" stroke-width="2.64134" stroke-miterlimit="10" stroke-linecap="round" stroke-linejoin="round"/>
<path d="M237.546 242.744L247.872 262.369" stroke="white" stroke-width="2.64134" stroke-miterlimit="10" stroke-linecap="round" stroke-linejoin="round"/>
<path d="M170.544 191.274C159.851 219.333 139.808 265.842 122.363 271.99C120.442 272.665 118.532 273.06 116.616 273.189C116.616 273.189 116.631 273.201 116.616 273.202C111.109 273.623 105.725 271.925 100.865 268.658C92.7098 263.169 86.0567 253.269 82.86 241.544C82.1346 238.941 81.6025 236.247 81.2488 233.487C80.1533 224.979 80.8753 215.912 84.0453 207.101C96.5831 172.243 114.559 106.739 132.924 105.157C161.102 102.728 166.115 122.627 172.192 142.15C172.239 142.289 172.272 142.44 172.32 142.592C173.504 146.406 174.358 150.262 174.869 154.136C176.626 166.58 175.12 179.248 170.544 191.274Z" fill="#EE9087"/>
<path d="M170.544 191.274C159.852 219.333 139.808 265.842 122.363 271.99C114.905 274.609 107.411 273.054 100.866 268.658C100.343 260.319 104.165 251.157 113.256 245.458C141.669 227.648 168.185 184.091 174.869 154.136C176.626 166.579 175.12 179.247 170.544 191.274Z" fill="#F08175"/>
<path d="M197.76 270.215C197.76 270.215 142.784 274.739 119.087 273.846C118.157 273.808 117.241 273.757 116.355 273.667C107.664 272.957 101.079 270.394 96.4477 266.546C91.2221 262.205 88.4528 256.237 87.9288 249.364C87.7355 247.146 87.8102 244.834 88.0935 242.455C88.2228 241.401 88.4132 240.41 88.6496 239.469C89.7825 235.319 92.1047 232.205 95.3124 229.926C103.102 224.333 116.05 223.544 129.298 224.265C149.222 225.327 196.53 229.501 196.53 229.501C196.53 229.501 196.794 236.892 197.065 245.399C197.45 256.638 197.872 269.816 197.76 270.215Z" fill="#EE9087"/>
<path d="M87.928 249.367C88.4588 256.236 91.2191 262.209 96.4467 266.541C101.551 270.792 109.022 273.467 119.085 273.849C142.781 274.738 197.767 270.215 197.767 270.215C197.866 269.81 197.444 256.641 197.07 245.395C174.103 249.94 115.16 259.948 87.928 249.367Z" fill="#F08175"/>
<path d="M170.79 268.25C173.006 268.008 174.573 266.273 174.291 264.375C174.008 262.477 171.983 261.135 169.767 261.377C167.551 261.619 165.984 263.354 166.266 265.252C166.549 267.15 168.574 268.492 170.79 268.25Z" fill="white"/>
<path d="M148.76 268.419C150.976 268.177 152.544 266.442 152.261 264.544C151.979 262.646 149.953 261.303 147.737 261.545C145.521 261.787 143.954 263.522 144.236 265.42C144.519 267.318 146.544 268.661 148.76 268.419Z" fill="white"/>
<path d="M320.396 284.766C320.435 286.781 319.512 288.617 317.994 289.961C316.477 291.305 314.365 292.157 312.013 292.191L203.774 293.742C199.054 293.81 195.169 290.592 195.09 286.563C195.051 284.548 195.974 282.699 197.492 281.355C199.009 280.024 201.136 279.172 203.488 279.138L311.728 277.586C316.432 277.519 320.317 280.724 320.396 284.766Z" fill="#8CC0B2"/>
<path d="M320.396 284.766C320.435 286.781 319.512 288.617 317.994 289.961C316.477 291.305 314.365 292.157 312.013 292.191L259.496 292.944C268.808 287.778 277.196 282.202 285.552 277.962L311.727 277.586C316.432 277.519 320.317 280.724 320.396 284.766Z" fill="#6A9D8F"/>
<path d="M223.816 288.751L213.186 288.903C211.508 288.927 210.126 287.782 210.098 286.345C210.07 284.909 211.407 283.725 213.084 283.701L223.715 283.548C225.392 283.524 226.774 284.669 226.803 286.106C226.831 287.542 225.494 288.726 223.816 288.751Z" fill="white"/>
<path d="M247.54 288.41L236.909 288.563C235.232 288.587 233.849 287.442 233.821 286.005C233.793 284.569 235.13 283.385 236.807 283.361L247.438 283.208C249.116 283.184 250.498 284.329 250.526 285.766C250.554 287.202 249.217 288.386 247.54 288.41Z" fill="white"/>
<path d="M425.233 290.568L311.303 292.201C304.865 292.293 300.214 286.957 302.148 281.697L332.439 199.29C334.382 194.005 340.055 190.378 346.523 190.285L460.453 188.652C466.89 188.56 471.542 193.896 469.608 199.156L439.317 281.563C437.374 286.848 431.701 290.475 425.233 290.568Z" fill="#6A9D8F"/>
<path d="M478.847 199.03L476.043 206.657L448.564 281.427C446.614 286.718 440.944 290.343 434.472 290.435L320.538 292.069C314.111 292.161 309.45 286.823 311.386 281.558L317.306 265.479L341.684 199.161C343.619 193.87 349.288 190.246 355.761 190.153L469.694 188.52C476.137 188.427 480.782 193.765 478.847 199.03Z" fill="#8CC0B2"/>
<path d="M476.043 206.657L448.564 281.428C446.614 286.719 440.944 290.343 434.472 290.436L320.539 292.069C314.111 292.161 309.45 286.824 311.386 281.558L317.306 265.479C332.59 257.622 354.362 251.238 387.689 245.638C432.341 238.143 461.102 219.759 476.043 206.657Z" fill="#6A9D8E"/>
</g>
<defs>
<clipPath id="clip0_1100_75">
<rect width="527.607" height="288.656" fill="white" transform="matrix(0.999897 -0.0143348 0.0195387 0.999809 0.217102 8.2998)"/>
</clipPath>
</defs>
</svg>
