<svg width="32" height="31" viewBox="0 0 32 31" fill="none" xmlns="http://www.w3.org/2000/svg">
<path d="M15.9619 30.1524C24.2883 30.1524 31.0381 23.4026 31.0381 15.0762C31.0381 6.74984 24.2883 0 15.9619 0C7.63559 0 0.885742 6.74984 0.885742 15.0762C0.885742 23.4026 7.63559 30.1524 15.9619 30.1524Z" fill="white"/>
<path d="M25.1966 10.8344C24.5506 11.1209 23.8556 11.3147 23.1267 11.4012C23.8709 10.9554 24.442 10.2499 24.7115 9.4079C24.0152 9.82097 23.2436 10.1206 22.4232 10.2821C21.7658 9.58205 20.8292 9.14453 19.7921 9.14453C17.8023 9.14453 16.1885 10.7584 16.1885 12.7482C16.1885 13.0306 16.2205 13.3055 16.2823 13.5695C13.2874 13.4192 10.6319 11.9847 8.85437 9.80377C8.54423 10.3359 8.36632 10.9554 8.36632 11.6157C8.36632 12.8656 9.00299 13.9691 9.9694 14.6152C9.37896 14.5966 8.82293 14.4346 8.3373 14.1639C8.33703 14.1792 8.33703 14.1946 8.33703 14.2096C8.33703 15.9557 9.57972 17.412 11.2279 17.7428C10.9259 17.8256 10.6069 17.8694 10.2787 17.8694C10.046 17.8694 9.82052 17.8471 9.60068 17.8052C10.0592 19.2365 11.3897 20.2785 12.967 20.3078C11.7335 21.2745 10.1798 21.8504 8.49102 21.8504C8.20077 21.8504 7.91321 21.8334 7.63184 21.7999C9.22578 22.8227 11.1204 23.4191 13.1554 23.4191C19.7838 23.4191 23.4087 17.928 23.4087 13.1655C23.4087 13.0094 23.4052 12.8538 23.3982 12.6995C24.1028 12.1916 24.7137 11.5571 25.1966 10.8344Z" fill="#FF2E00"/>
</svg>
